<svg xmlns="http://www.w3.org/2000/svg" width="100" height="100" fill="none" viewBox="0 0 100 100"><g id="Competitions=Debate"><path id="Vector (Stroke)" fill="#EABB37" fill-rule="evenodd" d="M25 37.5C26.7259 37.5 28.125 38.8991 28.125 40.625V46.875C28.125 58.8991 37.9759 68.75 50 68.75C62.0241 68.75 71.875 58.8991 71.875 46.875V40.625C71.875 38.8991 73.2741 37.5 75 37.5C76.7259 37.5 78.125 38.8991 78.125 40.625V46.875C78.125 61.295 67.143 73.2608 53.125 74.8265V84.375H62.5C64.2259 84.375 65.625 85.7741 65.625 87.5C65.625 89.2259 64.2259 90.625 62.5 90.625H37.5C35.7741 90.625 34.375 89.2259 34.375 87.5C34.375 85.7741 35.7741 84.375 37.5 84.375H46.875V74.8265C32.857 73.2608 21.875 61.295 21.875 46.875V40.625C21.875 38.8991 23.2741 37.5 25 37.5Z" clip-rule="evenodd"/><path id="Vector (Stroke)_2" fill="#EABB37" fill-rule="evenodd" d="M50.0079 9.37501C58.7613 9.37912 65.625 16.2455 65.625 25V46.6797C65.625 55.4052 58.5933 62.5 50 62.5C41.382 62.5 34.375 55.2238 34.375 46.6797V25.0075C34.3657 22.9534 34.7632 20.9178 35.5445 19.0181C36.3269 17.1158 37.4786 15.3874 38.933 13.933C40.3874 12.4786 42.1158 11.3269 44.0181 10.5445C45.9179 9.76317 47.9537 9.3657 50.0079 9.37501ZM49.9843 15.625C48.7534 15.6188 47.5336 15.8566 46.3953 16.3248C45.257 16.7929 44.2227 17.4821 43.3524 18.3524C42.4821 19.2227 41.7929 20.257 41.3248 21.3953C40.8566 22.5336 40.6188 23.7534 40.625 24.9843L40.625 25H40.625V46.6797C40.625 51.8856 44.9462 56.25 50 56.25C55.0786 56.25 59.375 52.0167 59.375 46.6797V25C59.375 19.6946 55.3054 15.625 50 15.625H49.9843V15.625Z" clip-rule="evenodd"/></g></svg>