<svg xmlns="http://www.w3.org/2000/svg" width="2048" height="104" fill="none" viewBox="0 0 2048 104"><g filter="url(#filter0_i_842_826)"><path fill="url(#paint0_linear_842_826)" fill-rule="evenodd" d="M161.595 0H107.73L107.73 56.3849H53.8651V103.95H107.73L107.73 103.95H161.595L215.46 103.95L215.46 103.95H269.325V72.4502H215.46L215.46 22.0499H161.595V0ZM0 27.09H53.865V103.95H0V27.09ZM269.325 45.045H323.19L323.19 4.41003H377.055V56.3849H430.92V103.95L377.055 103.95L323.19 103.95H269.325V45.045ZM484.785 37.17H430.92V103.95H484.785H538.65L592.515 103.95L646.38 103.95L700.245 103.95L754.11 103.95H807.975L861.84 103.95L915.705 103.95V56.3849H861.84V22.0499H807.975V37.17H754.11V56.3849H700.245V0H646.38V68.04H592.515V56.3849H538.65L538.65 68.04H484.785V37.17ZM915.705 77.8047H969.57V56.3849H1023.44V103.95L969.57 103.95H915.705V77.8047Z" clip-rule="evenodd"/></g><g filter="url(#filter0_i_842_847)" transform="translate(1024,0)"><path fill="url(#paint0_linear_842_847)" fill-rule="evenodd" d="M161.595 0H107.73L107.73 56.3849H53.8651V103.95H107.73L107.73 103.95H161.595L215.46 103.95L215.46 103.95H269.325V72.4502H215.46L215.46 22.0499H161.595V0ZM0 27.09H53.865V103.95H0V27.09ZM269.325 45.045H323.19L323.19 4.41003H377.055V56.3849H430.92V103.95L377.055 103.95L323.19 103.95H269.325V45.045ZM484.785 37.17H430.92V103.95H484.785H538.65L592.515 103.95L646.38 103.95L700.245 103.95L754.11 103.95H807.975L861.84 103.95L915.705 103.95L969.57 103.95V77.8047H915.705V56.3849H861.84V22.0499H807.975V37.17H754.11V56.3849H700.245V0H646.38V68.04H592.515V56.3849H538.65L538.65 68.04H484.785V37.17ZM1023.44 56.3849H969.57V103.95H1023.44V56.3849Z" clip-rule="evenodd"/></g><defs><filter id="filter0_i_842_826" width="1023.44" height="105.21" x="0" y="0" color-interpolation-filters="sRGB" filterUnits="userSpaceOnUse"><feFlood flood-opacity="0" result="BackgroundImageFix"/><feBlend in="SourceGraphic" in2="BackgroundImageFix" mode="normal" result="shape"/><feColorMatrix in="SourceAlpha" result="hardAlpha" type="matrix" values="0 0 0 0 0 0 0 0 0 0 0 0 0 0 0 0 0 0 127 0"/><feOffset dy="5.67"/><feGaussianBlur stdDeviation=".63"/><feComposite in2="hardAlpha" k2="-1" k3="1" operator="arithmetic"/><feColorMatrix type="matrix" values="0 0 0 0 0 0 0 0 0 0 0 0 0 0 0 0 0 0 0.25 0"/><feBlend in2="shape" mode="normal" result="effect1_innerShadow_842_826"/></filter><filter id="filter0_i_842_847" width="1023.44" height="105.21" x="0" y="0" color-interpolation-filters="sRGB" filterUnits="userSpaceOnUse"><feFlood flood-opacity="0" result="BackgroundImageFix"/><feBlend in="SourceGraphic" in2="BackgroundImageFix" mode="normal" result="shape"/><feColorMatrix in="SourceAlpha" result="hardAlpha" type="matrix" values="0 0 0 0 0 0 0 0 0 0 0 0 0 0 0 0 0 0 127 0"/><feOffset dy="5.67"/><feGaussianBlur stdDeviation=".63"/><feComposite in2="hardAlpha" k2="-1" k3="1" operator="arithmetic"/><feColorMatrix type="matrix" values="0 0 0 0 0 0 0 0 0 0 0 0 0 0 0 0 0 0 0.25 0"/><feBlend in2="shape" mode="normal" result="effect1_innerShadow_842_847"/></filter><linearGradient id="paint0_linear_842_826" x1="0" x2="1023.44" y1="51.975" y2="51.975" gradientUnits="userSpaceOnUse"><stop stop-color="#316661"/><stop offset="1" stop-color="#61CCC2"/></linearGradient><linearGradient id="paint0_linear_842_847" x1="0" x2="1023.44" y1="51.975" y2="51.975" gradientUnits="userSpaceOnUse"><stop stop-color="#61CCC2"/><stop offset="1" stop-color="#316661"/></linearGradient></defs></svg>