<svg xmlns="http://www.w3.org/2000/svg" width="100" height="100" fill="none" viewBox="0 0 100 100"><path fill="#EABB37" d="M61.7188 86.7188H38.2812C37.8516 86.7188 37.5 87.0703 37.5 87.5V90.625C37.5 92.3535 38.8965 93.75 40.625 93.75H59.375C61.1035 93.75 62.5 92.3535 62.5 90.625V87.5C62.5 87.0703 62.1484 86.7188 61.7188 86.7188ZM50 6.25C32.3145 6.25 17.9688 20.5957 17.9688 38.2812C17.9688 50.1367 24.4141 60.4883 33.9844 66.0254V77.3438C33.9844 79.0723 35.3809 80.4688 37.1094 80.4688H62.8906C64.6191 80.4688 66.0156 79.0723 66.0156 77.3438V66.0254C75.5859 60.4883 82.0312 50.1367 82.0312 38.2812C82.0312 20.5957 67.6855 6.25 50 6.25ZM62.4902 59.9414L58.9844 61.9727V73.4375H41.0156V61.9727L37.5098 59.9414C29.8242 55.498 25 47.3145 25 38.2812C25 24.4727 36.1914 13.2812 50 13.2812C63.8086 13.2812 75 24.4727 75 38.2812C75 47.3145 70.1758 55.498 62.4902 59.9414Z"/></svg>