<svg width="100" height="100" viewBox="0 0 100 100" fill="none" xmlns="http://www.w3.org/2000/svg">
<path fill-rule="evenodd" clip-rule="evenodd" d="M14.0625 6.25H67.1966C69.2643 6.25602 71.2457 7.08009 72.7078 8.54221C74.1699 10.0043 74.994 11.9857 75 14.0534L75 14.0625L75 81.2226H68.75V14.0685C68.748 13.6532 68.5821 13.2554 68.2884 12.9616C67.9947 12.6679 67.597 12.5021 67.1817 12.5H14.0682C13.653 12.5021 13.2553 12.6679 12.9616 12.9616C12.6679 13.2553 12.5021 13.653 12.5 14.0682V82.8072C12.5048 84.0503 13.0007 85.2412 13.8798 86.1202C14.7587 86.9992 15.9494 87.4951 17.1923 87.5H81.25V93.75H17.1875L17.1782 93.75C14.2825 93.7413 11.5079 92.5872 9.46035 90.5396C7.4128 88.4921 6.25866 85.7175 6.25001 82.8218L6.25 82.8125V14.0534C6.256 11.9857 7.08009 10.0043 8.54221 8.54221C10.0043 7.08009 11.9857 6.25602 14.0534 6.25001L14.0625 6.25Z" fill="#EABB37"/>
<path fill-rule="evenodd" clip-rule="evenodd" d="M68.75 25C68.75 23.2741 70.1491 21.875 71.875 21.875H85.9375C88.0095 21.875 89.9966 22.6981 91.4618 24.1632C92.9269 25.6284 93.75 27.6155 93.75 29.6875V81.25C93.75 84.5652 92.433 87.7446 90.0888 90.0888C87.7446 92.433 84.5652 93.75 81.25 93.75C77.9348 93.75 74.7554 92.433 72.4112 90.0888C70.067 87.7446 68.75 84.5652 68.75 81.25V25ZM75 28.125V81.25C75 82.9076 75.6585 84.4973 76.8306 85.6694C78.0027 86.8415 79.5924 87.5 81.25 87.5C82.9076 87.5 84.4973 86.8415 85.6694 85.6694C86.8415 84.4973 87.5 82.9076 87.5 81.25V29.6875C87.5 29.2731 87.3354 28.8757 87.0424 28.5826C86.7493 28.2896 86.3519 28.125 85.9375 28.125H75Z" fill="#EABB37"/>
<path fill-rule="evenodd" clip-rule="evenodd" d="M43.75 25C43.75 23.2741 45.1491 21.875 46.875 21.875H59.375C61.1009 21.875 62.5 23.2741 62.5 25C62.5 26.7259 61.1009 28.125 59.375 28.125H46.875C45.1491 28.125 43.75 26.7259 43.75 25ZM43.75 37.5C43.75 35.7741 45.1491 34.375 46.875 34.375H59.375C61.1009 34.375 62.5 35.7741 62.5 37.5C62.5 39.2259 61.1009 40.625 59.375 40.625H46.875C45.1491 40.625 43.75 39.2259 43.75 37.5ZM18.75 50C18.75 48.2741 20.1491 46.875 21.875 46.875H59.375C61.1009 46.875 62.5 48.2741 62.5 50C62.5 51.7259 61.1009 53.125 59.375 53.125H21.875C20.1491 53.125 18.75 51.7259 18.75 50ZM18.75 62.5C18.75 60.7741 20.1491 59.375 21.875 59.375H59.375C61.1009 59.375 62.5 60.7741 62.5 62.5C62.5 64.2259 61.1009 65.625 59.375 65.625H21.875C20.1491 65.625 18.75 64.2259 18.75 62.5ZM18.75 75C18.75 73.2741 20.1491 71.875 21.875 71.875H59.375C61.1009 71.875 62.5 73.2741 62.5 75C62.5 76.7259 61.1009 78.125 59.375 78.125H21.875C20.1491 78.125 18.75 76.7259 18.75 75Z" fill="#EABB37"/>
<path d="M34.375 40.625H21.875C21.0462 40.625 20.2513 40.2958 19.6653 39.7097C19.0792 39.1237 18.75 38.3288 18.75 37.5V25C18.75 24.1712 19.0792 23.3763 19.6653 22.7903C20.2513 22.2042 21.0462 21.875 21.875 21.875H34.375C35.2038 21.875 35.9987 22.2042 36.5847 22.7903C37.1708 23.3763 37.5 24.1712 37.5 25V37.5C37.5 38.3288 37.1708 39.1237 36.5847 39.7097C35.9987 40.2958 35.2038 40.625 34.375 40.625Z" fill="#EABB37"/>
</svg>