<svg xmlns="http://www.w3.org/2000/svg" width="100" height="100" fill="none" viewBox="0 0 100 100"><path fill="#EABB37" fill-rule="evenodd" d="M12.4909 6.25003L12.5 6.25L75.0091 6.25001C78.3189 6.25964 81.4904 7.57873 83.8309 9.91915C86.1713 12.2596 87.4904 15.4311 87.5 18.7409L87.5 18.75L87.5 21.875H81.25V18.7543C81.2439 17.0975 80.5831 15.5102 79.4114 14.3386C78.2396 13.1668 76.6521 12.5059 74.995 12.5H12.505C10.8479 12.5059 9.26035 13.1668 8.08855 14.3386C6.91675 15.5104 6.25589 17.098 6.25 18.755V68.745C6.25589 70.4021 6.91675 71.9897 8.08855 73.1615C9.26044 74.3333 10.8482 74.9942 12.5053 75H15.625V81.25H12.5L12.4909 81.25C9.18109 81.2404 6.00955 79.9213 3.66913 77.5809C1.32871 75.2405 0.00962491 72.0689 1.31627e-05 68.7591L0 68.75V18.7409C0.00961175 15.4311 1.32871 12.2596 3.66913 9.91915C6.00955 7.57873 9.18108 6.25964 12.4909 6.25003Z" clip-rule="evenodd"/><path fill="#EABB37" fill-rule="evenodd" d="M27.7324 28.125C24.4975 28.125 21.875 30.7475 21.875 33.9824V81.6426C21.875 84.8775 24.4975 87.5 27.7324 87.5H87.8926C91.1275 87.5 93.75 84.8775 93.75 81.6426V33.9824C93.75 30.7475 91.1275 28.125 87.8926 28.125H27.7324ZM15.625 33.9824C15.625 27.2957 21.0457 21.875 27.7324 21.875H87.8926C94.5793 21.875 100 27.2957 100 33.9824V81.6426C100 88.3293 94.5793 93.75 87.8926 93.75H27.7324C21.0457 93.75 15.625 88.3293 15.625 81.6426V33.9824Z" clip-rule="evenodd"/><path fill="#EABB37" fill-rule="evenodd" d="M72.8359 40.0566C71.2215 40.0566 69.9512 41.3501 69.9512 42.8984C69.9512 44.4468 71.2215 45.7402 72.8359 45.7402C74.4503 45.7402 75.7207 44.4468 75.7207 42.8984C75.7207 41.3501 74.4503 40.0566 72.8359 40.0566ZM63.7012 42.8984C63.7012 37.8561 67.8121 33.8066 72.8359 33.8066C77.8598 33.8066 81.9707 37.8561 81.9707 42.8984C81.9707 47.9408 77.8598 51.9902 72.8359 51.9902C67.8121 51.9902 63.7012 47.9408 63.7012 42.8984Z" clip-rule="evenodd"/><path fill="#EABB37" fill-rule="evenodd" d="M39.5011 53.2348C41.2429 51.701 43.5018 50.8849 45.8217 50.9515C48.1417 51.018 50.35 51.9622 52.001 53.5934L52.0047 53.5971L68.3472 69.7971L72.7632 65.4131L72.7705 65.4059C74.3865 63.8122 76.5355 62.8737 78.8027 62.7714C81.07 62.6692 83.2948 63.4104 85.0476 64.8521L85.0546 64.8579L98.8671 76.2856C100.197 77.3858 100.383 79.3557 99.2828 80.6854C98.1826 82.0152 96.2127 82.2013 94.883 81.1011L81.0774 69.6791C81.0765 69.6784 81.0783 69.6799 81.0774 69.6791C80.5184 69.2205 79.8067 68.9825 79.0843 69.0151C78.3621 69.0476 77.6774 69.3461 77.162 69.8531C77.1611 69.854 77.163 69.8521 77.162 69.8531L54.0044 92.8427C52.7796 94.0587 50.8009 94.0515 49.585 92.8267C48.3691 91.6018 48.3763 89.6232 49.6011 88.4073L63.9116 74.2005L47.6084 58.0394C47.6078 58.0389 47.6089 58.0399 47.6084 58.0394C47.0833 57.5214 46.3798 57.2201 45.6425 57.1989C44.9047 57.1778 44.1863 57.4372 43.6322 57.9249C43.632 57.9251 43.6323 57.9248 43.6322 57.9249L20.8175 78.0543C19.5233 79.1961 17.5485 79.0726 16.4067 77.7784C15.2649 76.4843 15.3883 74.5095 16.6825 73.3676L39.5011 53.2348Z" clip-rule="evenodd"/></svg>