<svg width="1023" height="99" viewBox="0 0 1023 99" fill="none" xmlns="http://www.w3.org/2000/svg">
<g filter="url(#filter0_i_236_272)">
<path fill-rule="evenodd" clip-rule="evenodd" d="M161.526 0H107.684L107.684 56.3848H53.8422V103.95H107.684L107.684 103.95H161.526V103.95H215.368L215.368 103.95H269.211V103.95H323.053L323.053 103.95H376.895V103.95H430.737L484.579 103.95H538.421L592.263 103.95L646.105 103.95L699.947 103.95L753.789 103.95L807.632 103.95L861.474 103.95L915.316 103.95L969.158 103.95V77.8047H915.316V56.3848H861.474L861.474 22.0498H807.632V37.1699H753.789V56.3848H699.947V0H646.105V68.04H592.263V56.3848H538.421L538.421 68.04H484.579V37.1699H430.737L430.737 56.3848H376.895V4.41016H323.053L323.053 45.0449H269.211V72.4502H215.368L215.368 22.0498H161.526V0ZM0 27.09H53.8421V103.95H0V27.09ZM1023 56.3848H969.158V103.95H1023V56.3848Z" fill="url(#paint0_linear_236_272)"/>
</g>
<defs>
<filter id="filter0_i_236_272" x="0" y="0" width="1023" height="105.21" filterUnits="userSpaceOnUse" color-interpolation-filters="sRGB">
<feFlood flood-opacity="0" result="BackgroundImageFix"/>
<feBlend mode="normal" in="SourceGraphic" in2="BackgroundImageFix" result="shape"/>
<feColorMatrix in="SourceAlpha" type="matrix" values="0 0 0 0 0 0 0 0 0 0 0 0 0 0 0 0 0 0 127 0" result="hardAlpha"/>
<feOffset dy="5.67"/>
<feGaussianBlur stdDeviation="0.63"/>
<feComposite in2="hardAlpha" operator="arithmetic" k2="-1" k3="1"/>
<feColorMatrix type="matrix" values="0 0 0 0 0 0 0 0 0 0 0 0 0 0 0 0 0 0 0.25 0"/>
<feBlend mode="normal" in2="shape" result="effect1_innerShadow_236_272"/>
</filter>
<linearGradient id="paint0_linear_236_272" x1="0" y1="51.9751" x2="1023" y2="51.9751" gradientUnits="userSpaceOnUse">
<stop stop-color="#316661"/>
<stop offset="1" stop-color="#61CCC2"/>
</linearGradient>
</defs>
</svg>
