<svg xmlns="http://www.w3.org/2000/svg" width="775" height="150" fill="none"><path fill="#0F776E" d="M5.568 26.8h37.92l8.544 12.864v16.992l-8.736 8.928H17.184V94H5.568zm11.616 10.848v20.448l5.376-3.168h16.032l1.824-1.824V41.872l-2.784-4.224zm45.179 3.456h6.624L77.339 46l4.704-4.896h21.792l6.528 9.792-8.928 6.048-3.264-5.088H86.65l-3.072 3.264v28.128H97.21V94H62.363V83.248h9.695V55.984l-2.784-4.128h-6.912zm62.458-1.824h16.128l8.544 12.672v31.584h17.568V94h-46.272V83.536h17.568V53.968l-2.88-4.224h-10.656zm12.384-10.56h13.44V15.28h-13.44zm42.107 12.384h44.352V50.8L192.56 83.152h31.104V94h-44.352v-9.696l30.912-32.064v-.384h-30.912zm65.626-.192h28.32l8.736 13.056-16.992 17.472h-17.568v6.912l3.072 4.512h18.432l5.28-5.472 6.72 8.448-7.872 8.16h-28.32l-8.352-12.48V49.744zm2.496 13.44v7.392h13.344l7.104-7.488-1.536-2.208h-16.704zM350.943 26.8h37.92l8.544 12.864v16.992l-8.736 8.928h-26.112V94h-11.616zm11.616 10.848v20.448l5.376-3.168h16.032l1.824-1.824V41.872l-2.784-4.224zm54.971 3.456h28.896l8.64 12.864V84.88L446.234 94h-28.8l-8.736-12.864V50.224zm2.688 37.92 2.784 4.128h18.624l1.728-1.824V55.984l-2.784-4.128h-18.528l-1.824 2.016zm54.874-37.92h28.896l8.64 12.864V84.88L503.796 94h-28.8l-8.736-12.864V50.224zm2.688 37.92 2.784 4.128h18.624l1.728-1.824V55.984l-2.784-4.128h-18.528l-1.824 2.016zm47.771-56.832h14.304l9.12 5.376V79.12l2.784 4.128h16.32V94h-21.984l-8.64-12.768V32.944h-11.904z"/><path stroke="#0F776E" stroke-linecap="round" stroke-width="10" d="M149 144.5h430.05a52.53 52.53 0 0 0 42.2-21.25v0a52.53 52.53 0 0 1 42.2-21.25H770"/></svg>