<svg width="1432" height="1229" viewBox="0 0 1432 1229" fill="none" xmlns="http://www.w3.org/2000/svg">
<g filter="url(#filter0_d_1586_679)">
<path d="M304.45 598.961C297.449 603.741 290.512 604.681 283.055 599.024C281.641 607.312 280.978 615.619 274.13 621.016C266.79 626.798 258.885 624.202 250.909 621.687C246.29 632.544 237.312 635.821 226.596 635.74C215.272 635.659 210.922 631.39 208.845 618.465C198.264 617.811 190.95 612.351 187.593 602.684C182.079 608.35 176.977 614.455 170.979 619.494C164.677 624.775 156.665 625.822 148.242 625.303C146.03 633.502 142.495 640.359 132.37 639.464C126.927 638.98 124.681 636.34 123.051 628.696C120.303 631.918 118.011 635.525 114.851 638.058C110.859 641.272 106.473 644.521 101.71 646.159C90.4311 650.052 81.6226 645.067 78.0866 633.654C77.2989 631.112 76.8334 628.463 76.1172 625.438C73.3153 628.642 70.8805 631.73 68.1233 634.487C63.8533 638.747 58.724 641.316 52.5294 641.146C43.1032 640.887 37.9559 635.292 38.5288 625.921C38.6183 624.435 38.8869 622.967 39.1196 621.061C29.4696 618.59 19.1662 616.165 16.973 604.269C15.0305 593.698 18.1815 584.783 28.3149 579.368C24.1523 576.781 19.8913 574.659 16.2479 571.759C4.82545 562.674 5.30884 549.785 17.4385 541.667C21.8517 538.713 26.8915 536.708 31.994 534.085C30.8393 532.134 29.21 530.022 28.2701 527.641C26.4708 523.103 24.3313 518.511 23.6331 513.749C21.9144 501.997 28.7356 494.084 40.5877 493.35C44.1416 493.126 47.7312 493.314 51.8222 493.314C47.9192 485.402 45.0009 477.346 50.372 468.646C47.3015 467.867 44.5533 467.321 41.8947 466.48C31.0272 463.051 25.0206 454.942 25.316 444.246C25.5488 435.501 29.9262 430.363 38.5199 428.832C40.5519 428.465 42.6287 428.313 45.0815 428.009C42.3781 418.888 41.5008 410.027 50.372 403.788C57.981 398.426 66.0913 397.809 74.6312 403.099C77.1377 394.237 83.4666 390.648 91.9439 390.29C88.4796 373.042 92.1588 367.653 110.465 363.993C108.764 362.856 107.493 362.274 106.571 361.343C101.988 356.751 96.4377 352.697 93.1972 347.281C86.2864 335.753 90.7623 323.982 103.008 318.504C104.208 317.967 105.416 317.457 106.634 316.929C99.6783 301.686 100.009 294.632 107.824 288.483C115.908 282.128 124.636 283.802 138.153 294.48C145.798 287.946 153.747 287.141 161.454 294.597C174.443 276.928 195.471 273.652 204.145 299.126C207.431 288.331 213.589 281.511 225.164 280.105C224.206 278.664 223.481 277.68 222.872 276.623C219.981 271.611 216.373 266.849 214.395 261.487C209.624 248.545 217.734 238.645 231.484 239.916C232.495 240.005 233.498 240.167 234.017 240.229C232.03 234.349 229.318 228.665 228.297 222.686C227.089 215.632 231.761 211.399 238.278 208.651C235.279 199.807 235.038 191.447 243.793 185.593C253.264 179.256 262.224 182.076 271.319 188.153C272.026 176.598 278.078 169.768 288.65 167.244C298.909 164.792 307.663 168.524 315.586 175.3C315.532 163.521 314.852 159.654 329.157 157.694C327.366 153.872 325.155 150.13 323.848 146.102C322.04 140.517 322.89 135.209 327.348 130.832C328.19 130.009 329.174 128.523 328.986 127.574C326.57 115.813 331.135 108.151 342.718 104.257C340.436 94.5812 343.64 87.7785 353.649 84.5741C350.381 78.4607 347.23 72.222 352.646 66.3234C357.784 60.7291 364.462 62.9668 371.248 64.3452C371.239 58.2318 370.746 51.5366 376.117 47.9204C380.719 44.8235 386.493 43.4629 392.258 41.1357C392.741 36.6603 393.036 30.878 394.075 25.248C395.283 18.7318 398.327 13.0838 404.548 9.91518C412.676 5.77094 420.429 8.49199 424.35 16.7268C425.048 18.1947 425.576 19.7432 426.346 21.6676C429.13 19.7253 431.618 17.6935 434.384 16.145C437.75 14.2653 441.25 12.493 444.876 11.2131C451.688 8.81423 457.981 10.676 462.233 15.8854C466.512 21.1216 467.023 28.2017 463.558 34.3062C463.146 35.0402 462.69 35.7473 461.875 37.0899C471.973 36.1411 481.14 36.3023 487.495 46.2556C487.889 43.9194 488.113 42.4067 488.399 40.903C489.724 33.975 493.099 28.6851 500.171 26.4742C509.427 23.5831 516.436 26.9128 519.802 36.0248C520.876 38.9338 521.494 42.0487 521.995 45.1188C522.47 48.0189 522.514 50.9816 522.765 54.195C534.841 52.9777 545.879 53.5326 550.023 68.203C559.226 61.2482 569.117 58.4287 579.815 63.1279C591.64 68.3284 592.114 78.8098 590.978 90.8934C597.414 84.046 603.832 78.9261 612.677 79.3647C613.044 78.8993 613.366 78.6845 613.384 78.4518C614.476 62.027 625.818 55.5555 640.57 55.9941C644.59 56.1105 646.38 55.2064 647.83 51.1607C652.637 37.8149 664.919 30.1888 676.834 32.3191C683.387 33.4917 687.88 37.5375 691.013 42.9975C693.511 47.3386 695.283 52.1005 696.957 55.7703C701.899 55.7703 706.545 55.8598 711.182 55.6987C712.274 55.6629 713.536 54.9737 714.378 54.2039C715.452 53.2104 716.123 51.7962 717.054 50.6415C726.024 39.5067 735.065 37.3585 749.621 42.8632C770.049 23.1982 787.084 24.3797 805.408 46.9359C814.19 31.433 827.572 25.2211 844.867 28.3002C861.186 31.2003 868.804 42.6126 871.785 58.196C878.723 57.4889 885.329 57.5247 890.781 62.6714C891.443 63.298 893.556 62.6893 894.872 62.2507C904.047 59.2433 913.321 57.3367 923.007 59.3417C929.399 60.6664 934.797 63.7455 938.529 69.1071C940.239 71.5686 942.012 71.7834 944.814 71.8281C950.238 71.9087 956.021 71.9445 960.989 73.7973C973.155 78.3175 978.41 90.428 974.095 102.655C972.528 107.085 970.004 111.176 967.712 115.83C974.721 115.804 980.155 118.883 983.709 125.274C993.422 121.505 1002.96 120.27 1012.29 125.658C1021.21 130.805 1025.65 139.407 1029.52 148.716C1038.96 147.337 1048.09 147.373 1055.65 154.614C1064.12 148.796 1073.03 144.912 1083.41 147.248C1094.27 149.692 1099.72 157.47 1102.63 167.844C1113.25 162.527 1123.03 164.263 1132.42 171.111C1136.36 160.925 1143.91 156.816 1153.98 157.219C1164.88 157.658 1172.04 163.404 1175.32 173.25C1181.49 171.899 1187.33 169.876 1193.27 169.473C1209.76 168.336 1222.13 180.473 1222.31 197.024C1222.4 205.598 1219.9 213.484 1216.6 221.209C1215.85 222.972 1215 224.691 1213.98 226.901C1215.49 226.803 1216.59 226.794 1217.67 226.651C1225.8 225.559 1231.06 228.155 1234.16 235.62C1235.34 238.475 1237.06 238.394 1239.35 238.403C1248.65 238.466 1255.36 243.801 1257.06 252.358C1259.54 264.835 1252.33 273.58 1239.59 273.41C1236.49 273.365 1233.4 272.819 1229.77 272.452C1231.78 279.085 1230.05 284.804 1226.27 290.13C1225.86 290.694 1226.05 292.198 1226.53 292.798C1235.47 303.789 1234.29 315.354 1228.65 327.213C1228.39 327.751 1228.15 328.297 1227.91 328.843C1227.86 328.968 1227.92 329.138 1227.91 328.95C1234.65 329.29 1241.45 329.022 1248.02 330.114C1255.02 331.277 1260.26 335.914 1264.27 342.018C1271.38 327.384 1284.05 322.371 1298.39 328.126C1306.88 331.528 1311.43 338.545 1311.63 348.051C1311.67 349.6 1312.26 351.631 1313.34 352.571C1324.27 362.104 1325.8 371.842 1318.04 384.159C1317.33 385.287 1316.61 386.405 1315.98 387.372C1319.95 389.458 1324.48 390.773 1327.44 393.7C1330.27 396.511 1331.45 400.986 1333.46 404.943C1336.95 401.004 1342.06 398.659 1348.14 398.579C1357.06 398.462 1363.9 403.161 1366.58 411.933C1367.46 414.815 1368.79 415.898 1371.62 416.498C1380.91 418.458 1386.05 424.25 1384.68 432.18C1383.98 436.235 1381.1 439.922 1378.66 444.899C1381.17 448.721 1384.13 454.262 1380.55 460.742C1377.12 466.954 1370.65 467.142 1364.73 468.341C1369.2 480.022 1369.17 480.774 1363.91 491.068C1371.67 491.372 1378.88 492.804 1384.02 498.98C1389.19 505.192 1390.3 512.272 1388.03 520.167C1398.65 521.715 1406.3 526.441 1407.79 537.46C1409.04 546.724 1404.63 553.213 1396.44 557.205C1396.49 557.626 1396.44 557.948 1396.57 558.136C1406.73 571.858 1406.23 581.086 1394.65 593.895C1393.96 594.656 1393.35 595.524 1392.86 596.419C1386.65 607.813 1376.48 609.084 1368.05 600.071C1365.74 602.031 1363.68 604.511 1361.03 605.844C1358.36 607.196 1355.12 607.419 1351.6 608.27C1350.5 613.81 1346.47 617.095 1340.3 617.498C1334.03 617.91 1329.88 614.732 1327.66 608.655C1326.09 609.729 1324.81 610.687 1323.46 611.519C1317.46 615.252 1312.18 614.938 1306.32 611.08C1304.72 610.024 1302.32 609.496 1300.4 609.72C1294.76 610.391 1289.93 608.386 1286.93 602.98C1285.22 599.91 1284.14 596.491 1283.12 594.038C1278.47 594.942 1274.11 595.792 1269.14 596.759C1268.34 602.389 1263.47 604.725 1257.58 606.032C1256.33 606.31 1254.62 607.169 1254.25 608.18C1252.06 614.115 1247.88 617.149 1241.69 617.078C1235.86 617.006 1232.4 613.596 1230.91 607.643C1224.38 616.281 1216.18 619.995 1206.03 617.203C1197.4 614.831 1194.84 607.679 1194.25 600.143C1189.23 600.501 1184.41 600.626 1179.66 601.306C1178.25 601.512 1176.55 602.998 1175.86 604.34C1168.42 618.841 1159.34 623.101 1143.23 619.843C1140.88 619.369 1137.84 619.861 1135.72 621.007C1122.22 628.32 1105.83 625.366 1096.04 613.533C1092.24 608.941 1091.11 605.155 1091.09 596.365C1080.4 595.121 1070.92 591.845 1068.89 578.669C1060.01 583.548 1051 586.063 1041.43 582.25C1031.74 578.401 1026.45 571.276 1026.53 561.179C1021.77 560.956 1016.36 562.307 1013.24 560.222C1006.73 555.854 1001.07 557.599 994.415 558.861C978.624 561.86 966.772 549.355 969.404 533.423C969.601 532.25 969.538 530.496 968.831 529.816C965.34 526.45 964.794 522.351 965.394 517.84C964.874 517.634 964.472 517.32 964.096 517.338C960.676 517.562 957.221 517.49 955.86 513.624C954.481 509.703 954.329 505.72 957.355 502.256C960.479 498.685 960.381 496.501 956.218 494.236C954.007 493.028 951.125 492.446 948.591 492.562C934.797 493.207 921.655 496.787 909.938 504.019C896.438 512.353 881.829 516.855 866.396 519.469C864.588 519.773 862.637 520.972 861.347 522.324C856.702 527.211 846.756 527.48 841.815 522.95C840.499 521.751 838.198 521.393 836.283 521.124C807.619 517.114 785.061 529.583 764.543 547.682C739.568 569.719 719.883 596.079 702.337 624.113C669.395 676.753 632.102 726.009 589.142 770.916C576.682 783.939 562.842 795.119 547.23 804.168C524.188 817.523 502.248 832.426 483.404 851.428C470.639 864.3 460.622 878.711 456.012 896.782C453.344 907.246 449.2 917.539 444.303 927.188C433.758 948.008 431.583 969.642 434.626 992.44C439.039 1025.51 449.137 1056.47 465.268 1085.77C483.628 1119.1 493.717 1155.18 497.647 1192.98C497.835 1194.76 497.987 1196.55 497.996 1198.34C498.031 1202.42 495.928 1203.85 492.311 1201.86C486.314 1198.57 480.799 1198.21 475.446 1203.15C474.811 1203.74 472.859 1203.67 472.009 1203.12C465.017 1198.69 461.705 1198.47 455.555 1203.27C452.789 1205.43 451.106 1205.65 448.492 1202.95C444.679 1199 439.863 1199.28 435.262 1201.65C432.845 1202.89 431.207 1203.19 429.103 1200.85C425.943 1197.34 421.906 1198.65 418.325 1200.26C415.783 1201.41 413.939 1201.92 411.611 1199.62C408.845 1196.89 405.264 1197.24 402.024 1198.94C399.392 1200.31 397.056 1202.21 394.451 1203.66C390.512 1205.85 385.911 1205.3 383.324 1202.38C380.602 1199.31 380.396 1195.75 382.59 1192.46C393.887 1175.63 397.772 1156.63 398.703 1136.88C400.225 1104.69 396.25 1073.14 385.866 1042.58C382.804 1033.58 377.979 1025.16 377.469 1015.39C377.245 1011.08 376.977 1006.74 377.227 1002.45C377.917 990.694 378.606 978.933 379.832 967.234C380.54 960.441 382.402 953.781 383.538 947.023C384.505 941.304 385.92 935.513 385.821 929.775C385.615 917.432 387.674 905.491 389.921 893.435C396.492 858.15 394.997 822.929 385.633 788.397C381.659 773.735 376.135 759.503 374.757 744.233C373.915 734.88 373.414 725.499 372.904 716.119C372.027 699.944 368.025 684.558 360.559 670.237C352.977 655.7 344.867 641.442 336.792 627.174C335.96 625.715 333.749 624.122 332.182 624.131C314.27 624.193 307.744 618.715 305.049 600.948C304.987 600.438 304.745 599.919 304.45 598.961ZM744.294 482.788C743.131 482.878 742.235 482.904 741.349 483.012C732.003 484.122 723.831 482.439 718.298 473.828C717.69 472.888 716.177 472.235 714.977 472.002C693.287 467.795 671.624 467.223 650.444 474.347C628.36 481.777 611.755 495.453 604.647 518.457C597.244 542.401 584.344 562.782 566.092 579.842C560.434 585.132 556.325 591.353 553.291 598.478C550.605 604.77 547.705 611.027 544.223 616.898C534.385 633.502 521.208 647.251 506.545 659.666C497.79 667.077 493.627 676.592 494.2 688.093C494.755 699.255 497.996 709.692 502.131 720.03C507.44 733.295 512.363 746.721 516.973 760.246C520.062 769.287 525.889 772.142 534.483 767.702C564.185 752.351 586.878 729.41 606.527 702.719C624.01 678.964 642.379 655.826 660.945 632.903C670.048 621.66 677.783 609.899 683.27 596.5C692.911 572.986 705.793 551.539 727.08 536.717C737.912 529.171 749.871 523.264 761.24 516.461C762.592 515.655 764.113 514.017 764.301 512.594C764.865 508.316 764.812 503.957 765.027 498.774C761.464 496.51 761.526 492.034 762.923 487.04C752.1 493.341 747.418 492.249 744.294 482.788ZM351.661 617.695C352.744 619.074 353.774 620.353 354.768 621.642C376.681 650.169 388.516 682.499 390.422 718.329C391.362 735.989 395.355 752.692 402.122 769.018C406.491 779.562 410.08 790.572 412.676 801.68C417.17 820.96 417.707 840.66 416.696 860.406C416.624 861.874 417.824 863.405 418.432 864.908C419.569 864.121 421.109 863.584 421.789 862.51C433.257 844.339 447.57 828.729 463.245 814.059C477.102 801.089 482.294 784.396 478.463 765.5C474.533 746.122 463.827 730.315 450.516 716.36C439.156 704.447 432.424 690.886 430.097 674.596C428.011 660.015 424.708 645.604 422.022 631.112C420.285 621.759 419.202 612.244 416.839 603.052C415.425 597.547 412.095 592.534 409.23 586.484C401.317 602.058 394.424 606.873 378.248 608.27C372.931 608.726 367.542 608.189 362.18 608.27C360.837 608.288 359.064 608.521 358.259 609.371C355.94 611.841 354.007 614.679 351.661 617.695ZM441.877 552.327C440.749 559.891 440.686 559.837 435.638 565.932C434.814 566.935 434.474 568.671 434.555 570.032C435.127 579.69 434.59 589.643 436.819 598.925C442.352 621.884 445.798 645.04 448.108 668.509C448.967 677.29 453.192 685.793 456.307 694.27C456.889 695.854 459.476 696.695 461.141 697.886C461.822 695.97 463.129 694.046 463.093 692.148C462.618 671.32 470.612 654.743 486.699 641.451C496.778 633.126 506.374 624.086 515.335 614.571C525.567 603.714 533.427 590.995 536.148 576.109C538.663 562.352 539.917 548.362 541.627 534.461C542.038 531.096 540.284 528.894 536.909 528.643C530.983 528.205 525.397 527.139 521.592 521.993C514.807 526.54 508.299 525.895 501.657 522.324C501.397 527.104 501.308 532.188 496.635 533.817C492.723 535.177 488.131 534.569 483.771 534.846C483.458 556.158 461.634 570.963 441.877 552.327ZM594.621 473.399C584.971 480.219 575.061 481.132 565.385 473.148C564.964 473.605 564.641 473.792 564.588 474.043C559.172 495.785 556.862 517.795 559.718 540.109C559.996 542.257 562.269 545.122 564.239 545.775C565.931 546.33 569.404 544.808 570.541 543.144C575.894 535.294 581.077 527.265 585.615 518.923C589.16 512.406 591.371 505.174 594.728 498.542C597.235 493.565 600.619 489.036 603.277 484.829C600.305 480.908 597.638 477.382 594.621 473.399ZM718.397 435.089C714.628 436.745 710.313 440.066 705.873 440.236C700.565 440.433 695.731 441.346 690.852 443.037C689.742 443.422 688.507 443.682 687.343 443.655C681.175 443.503 675.017 443.234 669.261 443.028C667.059 446.501 664.803 450.046 662.341 453.931C681.211 452.078 699.723 452.901 718.155 460.107C716.49 452.391 718.146 446.743 723.356 443.243C721.458 440.119 719.731 437.291 718.397 435.089Z" fill="#FFE08D"/>
</g>
<defs>
<filter id="filter0_d_1586_679" x="0" y="0" width="1432" height="1229" filterUnits="userSpaceOnUse" color-interpolation-filters="sRGB">
<feFlood flood-opacity="0" result="BackgroundImageFix"/>
<feColorMatrix in="SourceAlpha" type="matrix" values="0 0 0 0 0 0 0 0 0 0 0 0 0 0 0 0 0 0 127 0" result="hardAlpha"/>
<feOffset dx="8" dy="8"/>
<feGaussianBlur stdDeviation="8"/>
<feComposite in2="hardAlpha" operator="out"/>
<feColorMatrix type="matrix" values="0 0 0 0 0 0 0 0 0 0 0 0 0 0 0 0 0 0 0.25 0"/>
<feBlend mode="normal" in2="BackgroundImageFix" result="effect1_dropShadow_1586_679"/>
<feBlend mode="normal" in="SourceGraphic" in2="effect1_dropShadow_1586_679" result="shape"/>
</filter>
</defs>
</svg>
